%TF.GenerationSoftware,KiCad,Pcbnew,7.0.1*%
%TF.CreationDate,2023-11-18T18:10:11+02:00*%
%TF.ProjectId,Dille,44696c6c-652e-46b6-9963-61645f706362,rev?*%
%TF.SameCoordinates,Original*%
%TF.FileFunction,Copper,L2,Bot*%
%TF.FilePolarity,Positive*%
%FSLAX46Y46*%
G04 Gerber Fmt 4.6, Leading zero omitted, Abs format (unit mm)*
G04 Created by KiCad (PCBNEW 7.0.1) date 2023-11-18 18:10:11*
%MOMM*%
%LPD*%
G01*
G04 APERTURE LIST*
%TA.AperFunction,ComponentPad*%
%ADD10C,2.500000*%
%TD*%
%TA.AperFunction,ComponentPad*%
%ADD11R,1.800000X1.800000*%
%TD*%
%TA.AperFunction,ComponentPad*%
%ADD12C,1.800000*%
%TD*%
%TA.AperFunction,ComponentPad*%
%ADD13R,4.500000X2.000000*%
%TD*%
%TA.AperFunction,ComponentPad*%
%ADD14O,4.000000X2.000000*%
%TD*%
%TA.AperFunction,ComponentPad*%
%ADD15O,2.000000X4.000000*%
%TD*%
%TA.AperFunction,ViaPad*%
%ADD16C,0.800000*%
%TD*%
%TA.AperFunction,Conductor*%
%ADD17C,0.500000*%
%TD*%
%TA.AperFunction,Conductor*%
%ADD18C,0.250000*%
%TD*%
G04 APERTURE END LIST*
D10*
%TO.P,RV2,1,1*%
%TO.N,GND*%
X88080000Y-67340000D03*
%TO.P,RV2,2,2*%
%TO.N,Net-(C19-Pad2)*%
X83000000Y-67340000D03*
%TO.P,RV2,3,3*%
%TO.N,Net-(C13-Pad2)*%
X77920000Y-67340000D03*
%TD*%
%TO.P,RV3,1,1*%
%TO.N,Net-(U1-VCO)*%
X60180000Y-67340000D03*
%TO.P,RV3,2,2*%
%TO.N,Net-(R22-Pad2)*%
X55100000Y-67340000D03*
%TO.P,RV3,3,3*%
X50020000Y-67340000D03*
%TD*%
%TO.P,SW2,1,A*%
%TO.N,GND*%
X62950000Y-123460000D03*
%TO.P,SW2,2,B*%
%TO.N,Net-(SW2A-B)*%
X62950000Y-116360000D03*
%TO.P,SW2,3,C*%
%TO.N,+9V*%
X62950000Y-109260000D03*
%TO.P,SW2,4,A*%
%TO.N,unconnected-(SW2B-A-Pad4)*%
X75050000Y-109260000D03*
%TO.P,SW2,5,B*%
%TO.N,unconnected-(SW2B-B-Pad5)*%
X75050000Y-116360000D03*
%TO.P,SW2,6,C*%
%TO.N,unconnected-(SW2B-C-Pad6)*%
X75050000Y-123460000D03*
%TD*%
%TO.P,RV1,1,1*%
%TO.N,GND*%
X54500000Y-83080000D03*
%TO.P,RV1,2,2*%
%TO.N,Net-(C10-Pad1)*%
X54500000Y-78000000D03*
%TO.P,RV1,3,3*%
%TO.N,Net-(R15-Pad1)*%
X54500000Y-72920000D03*
%TD*%
D11*
%TO.P,D3,1,K*%
%TO.N,GND*%
X70275000Y-105500000D03*
D12*
%TO.P,D3,2,A*%
%TO.N,Net-(D3-A)*%
X67735000Y-105500000D03*
%TD*%
D13*
%TO.P,J1,1*%
%TO.N,GND*%
X69100000Y-53450000D03*
D14*
%TO.P,J1,2*%
%TO.N,Net-(J1-Pad2)*%
X69100000Y-47250000D03*
D15*
%TO.P,J1,3*%
%TO.N,unconnected-(J1-Pad3)*%
X73800000Y-50250000D03*
%TD*%
D16*
%TO.N,GND*%
X79250000Y-80000000D03*
X50000000Y-70700000D03*
X56250000Y-81250000D03*
X78500000Y-65000000D03*
X58500000Y-112000000D03*
X83500000Y-90750000D03*
X52500000Y-115000000D03*
X61500000Y-77250000D03*
X78500000Y-98750000D03*
X69500000Y-87500000D03*
X88600000Y-79500000D03*
X56000000Y-90750000D03*
X72500000Y-70750000D03*
X52750000Y-85250000D03*
X80000000Y-61750000D03*
X52750000Y-94500000D03*
X49500000Y-78250000D03*
X81200000Y-77500000D03*
X50500000Y-88000000D03*
X85700000Y-65900000D03*
X69500000Y-83000000D03*
X63500000Y-83000000D03*
X52500000Y-101250000D03*
X52000000Y-61250000D03*
X88000000Y-85500000D03*
X78000000Y-84250000D03*
X79050000Y-104250000D03*
X54000000Y-90750000D03*
X47750000Y-93250000D03*
X62500000Y-63250000D03*
X65250000Y-89000000D03*
X71500000Y-76500000D03*
X83250000Y-109250000D03*
X87750000Y-59500000D03*
X57000000Y-95750000D03*
X72500000Y-105500000D03*
%TO.N,+5V*%
X61000000Y-103000000D03*
X61000000Y-99750000D03*
%TO.N,+4V5*%
X71000000Y-73500000D03*
X79500000Y-72500000D03*
%TO.N,Net-(U2A-+)*%
X79500000Y-75250000D03*
X71000000Y-75250000D03*
%TO.N,Net-(Q1-D)*%
X55500000Y-85500000D03*
X55000000Y-105750000D03*
%TO.N,Net-(C10-Pad2)*%
X53750000Y-105750000D03*
X49250000Y-105750000D03*
%TO.N,Net-(C13-Pad2)*%
X85000000Y-82099500D03*
X88200000Y-74900000D03*
%TO.N,Net-(C19-Pad2)*%
X69750000Y-63250000D03*
%TO.N,Net-(R15-Pad1)*%
X60125000Y-82375000D03*
X57875000Y-80125000D03*
%TO.N,Net-(U1-VCO)*%
X47750000Y-91250000D03*
X47750000Y-64750000D03*
X53750000Y-97250000D03*
%TD*%
D17*
%TO.N,+5V*%
X61000000Y-99750000D02*
X61000000Y-103000000D01*
D18*
%TO.N,+4V5*%
X72000000Y-72500000D02*
X71000000Y-73500000D01*
X79500000Y-72500000D02*
X72000000Y-72500000D01*
%TO.N,Net-(U2A-+)*%
X71000000Y-75250000D02*
X79500000Y-75250000D01*
%TO.N,Net-(Q1-D)*%
X55000000Y-86000000D02*
X55000000Y-105750000D01*
X55500000Y-85500000D02*
X55000000Y-86000000D01*
%TO.N,Net-(C10-Pad2)*%
X53750000Y-105750000D02*
X49250000Y-105750000D01*
%TO.N,Net-(C13-Pad2)*%
X88200000Y-74900000D02*
X85000000Y-78100000D01*
X85000000Y-78100000D02*
X85000000Y-82099500D01*
%TO.N,Net-(C19-Pad2)*%
X69750000Y-63250000D02*
X78910000Y-63250000D01*
X78910000Y-63250000D02*
X83000000Y-67340000D01*
%TO.N,Net-(R15-Pad1)*%
X57875000Y-80125000D02*
X60125000Y-82375000D01*
%TO.N,Net-(R22-Pad2)*%
X50020000Y-67340000D02*
X55100000Y-67340000D01*
%TO.N,Net-(U1-VCO)*%
X57590000Y-64750000D02*
X60180000Y-67340000D01*
X47750000Y-91250000D02*
X53750000Y-97250000D01*
X47750000Y-64750000D02*
X57590000Y-64750000D01*
%TD*%
%TA.AperFunction,Conductor*%
%TO.N,GND*%
G36*
X79001745Y-41500548D02*
G01*
X79480543Y-41513982D01*
X79480667Y-41514018D01*
X79480667Y-41513986D01*
X79481541Y-41514010D01*
X79673040Y-41519583D01*
X79679843Y-41519969D01*
X80072730Y-41553109D01*
X80356113Y-41577902D01*
X80362611Y-41578645D01*
X80735084Y-41631230D01*
X81034708Y-41675119D01*
X81040879Y-41676185D01*
X81401842Y-41747985D01*
X81402600Y-41748138D01*
X81706601Y-41810910D01*
X81712447Y-41812266D01*
X82064756Y-41903145D01*
X82065671Y-41903386D01*
X82369662Y-41984840D01*
X82375140Y-41986446D01*
X82719171Y-42096098D01*
X82720466Y-42096519D01*
X83021652Y-42196321D01*
X83026804Y-42198157D01*
X83362592Y-42326334D01*
X83363811Y-42326809D01*
X83660494Y-42444674D01*
X83665290Y-42446698D01*
X83992148Y-42592957D01*
X83993671Y-42593654D01*
X84284041Y-42729055D01*
X84288551Y-42731270D01*
X84605852Y-42895192D01*
X84607625Y-42896128D01*
X84890375Y-43048586D01*
X84894445Y-43050882D01*
X85201475Y-43231994D01*
X85203526Y-43233232D01*
X85477400Y-43402160D01*
X85481178Y-43404585D01*
X85777095Y-43602311D01*
X85779284Y-43603808D01*
X86003624Y-43760893D01*
X86043288Y-43788666D01*
X86046727Y-43791164D01*
X86330753Y-44004915D01*
X86333099Y-44006724D01*
X86586151Y-44206811D01*
X86589244Y-44209339D01*
X86860700Y-44438564D01*
X86863133Y-44440673D01*
X87104214Y-44655216D01*
X87106966Y-44657741D01*
X87365092Y-44901777D01*
X87367586Y-44904202D01*
X87595796Y-45132412D01*
X87598221Y-45134906D01*
X87842257Y-45393032D01*
X87844782Y-45395784D01*
X88059325Y-45636865D01*
X88061434Y-45639298D01*
X88290659Y-45910754D01*
X88293187Y-45913847D01*
X88493274Y-46166899D01*
X88495083Y-46169245D01*
X88708834Y-46453271D01*
X88711332Y-46456710D01*
X88896160Y-46720670D01*
X88897687Y-46722903D01*
X89095402Y-47018804D01*
X89097838Y-47022598D01*
X89266766Y-47296472D01*
X89268031Y-47298568D01*
X89449094Y-47605514D01*
X89451436Y-47609665D01*
X89603827Y-47892292D01*
X89604849Y-47894228D01*
X89768728Y-48211448D01*
X89770943Y-48215957D01*
X89906291Y-48506210D01*
X89907094Y-48507968D01*
X90053285Y-48834674D01*
X90055339Y-48839539D01*
X90173123Y-49136018D01*
X90173731Y-49137579D01*
X90301827Y-49473155D01*
X90303686Y-49478373D01*
X90403479Y-49779533D01*
X90403917Y-49780880D01*
X90513538Y-50124810D01*
X90515169Y-50130373D01*
X90596591Y-50434247D01*
X90596886Y-50435368D01*
X90687726Y-50787526D01*
X90689094Y-50793423D01*
X90751849Y-51097347D01*
X90752028Y-51098231D01*
X90823809Y-51459096D01*
X90824883Y-51465315D01*
X90868761Y-51764863D01*
X90868852Y-51765501D01*
X90921351Y-52137374D01*
X90922097Y-52143900D01*
X90946903Y-52427421D01*
X90946936Y-52427807D01*
X90980028Y-52820149D01*
X90980415Y-52826963D01*
X90986014Y-53019330D01*
X90986017Y-53019460D01*
X90999451Y-53498254D01*
X90999500Y-53501732D01*
X90999500Y-124998268D01*
X90999451Y-125001746D01*
X90986017Y-125480539D01*
X90986014Y-125480669D01*
X90980415Y-125673035D01*
X90980028Y-125679849D01*
X90946936Y-126072192D01*
X90946903Y-126072578D01*
X90922097Y-126356098D01*
X90921351Y-126362624D01*
X90868852Y-126734497D01*
X90868761Y-126735135D01*
X90824883Y-127034683D01*
X90823809Y-127040902D01*
X90752028Y-127401767D01*
X90751849Y-127402651D01*
X90689094Y-127706575D01*
X90687726Y-127712472D01*
X90596886Y-128064630D01*
X90596591Y-128065751D01*
X90515169Y-128369625D01*
X90513538Y-128375188D01*
X90403917Y-128719118D01*
X90403479Y-128720465D01*
X90303686Y-129021625D01*
X90301827Y-129026843D01*
X90173731Y-129362419D01*
X90173123Y-129363980D01*
X90055339Y-129660459D01*
X90053285Y-129665324D01*
X89907094Y-129992030D01*
X89906291Y-129993788D01*
X89770943Y-130284041D01*
X89768728Y-130288550D01*
X89604849Y-130605770D01*
X89603827Y-130607706D01*
X89451436Y-130890333D01*
X89449094Y-130894484D01*
X89268031Y-131201430D01*
X89266766Y-131203526D01*
X89097838Y-131477400D01*
X89095402Y-131481194D01*
X88897687Y-131777095D01*
X88896160Y-131779328D01*
X88711332Y-132043288D01*
X88708834Y-132046727D01*
X88495083Y-132330753D01*
X88493274Y-132333099D01*
X88293187Y-132586151D01*
X88290659Y-132589244D01*
X88061434Y-132860700D01*
X88059325Y-132863133D01*
X87844782Y-133104214D01*
X87842257Y-133106966D01*
X87598221Y-133365092D01*
X87595796Y-133367586D01*
X87367586Y-133595796D01*
X87365092Y-133598221D01*
X87106966Y-133842257D01*
X87104214Y-133844782D01*
X86863133Y-134059325D01*
X86860700Y-134061434D01*
X86589244Y-134290659D01*
X86586151Y-134293187D01*
X86333099Y-134493274D01*
X86330753Y-134495083D01*
X86046727Y-134708834D01*
X86043288Y-134711332D01*
X85779328Y-134896160D01*
X85777095Y-134897687D01*
X85481194Y-135095402D01*
X85477400Y-135097838D01*
X85203526Y-135266766D01*
X85201430Y-135268031D01*
X84894484Y-135449094D01*
X84890333Y-135451436D01*
X84607706Y-135603827D01*
X84605770Y-135604849D01*
X84288550Y-135768728D01*
X84284041Y-135770943D01*
X83993788Y-135906291D01*
X83992030Y-135907094D01*
X83665324Y-136053285D01*
X83660459Y-136055339D01*
X83363980Y-136173123D01*
X83362419Y-136173731D01*
X83026843Y-136301827D01*
X83021625Y-136303686D01*
X82720465Y-136403479D01*
X82719118Y-136403917D01*
X82375188Y-136513538D01*
X82369625Y-136515169D01*
X82065751Y-136596591D01*
X82064630Y-136596886D01*
X81712472Y-136687726D01*
X81706575Y-136689094D01*
X81402651Y-136751849D01*
X81401767Y-136752028D01*
X81040902Y-136823809D01*
X81034683Y-136824883D01*
X80735135Y-136868761D01*
X80734497Y-136868852D01*
X80362624Y-136921351D01*
X80356098Y-136922097D01*
X80072718Y-136946890D01*
X80072332Y-136946923D01*
X79679849Y-136980028D01*
X79673035Y-136980415D01*
X79480669Y-136986014D01*
X79480539Y-136986017D01*
X79001746Y-136999451D01*
X78998268Y-136999500D01*
X59001732Y-136999500D01*
X58998254Y-136999451D01*
X58519459Y-136986017D01*
X58519331Y-136985979D01*
X58519330Y-136986014D01*
X58326963Y-136980415D01*
X58320149Y-136980028D01*
X57927666Y-136946923D01*
X57927280Y-136946890D01*
X57643900Y-136922097D01*
X57637374Y-136921351D01*
X57265501Y-136868852D01*
X57264863Y-136868761D01*
X56965315Y-136824883D01*
X56959096Y-136823809D01*
X56598231Y-136752028D01*
X56597347Y-136751849D01*
X56293423Y-136689094D01*
X56287526Y-136687726D01*
X55935368Y-136596886D01*
X55934247Y-136596591D01*
X55630373Y-136515169D01*
X55624810Y-136513538D01*
X55280880Y-136403917D01*
X55279533Y-136403479D01*
X54978373Y-136303686D01*
X54973155Y-136301827D01*
X54637579Y-136173731D01*
X54636018Y-136173123D01*
X54339539Y-136055339D01*
X54334674Y-136053285D01*
X54007968Y-135907094D01*
X54006210Y-135906291D01*
X53715957Y-135770943D01*
X53711448Y-135768728D01*
X53394228Y-135604849D01*
X53392292Y-135603827D01*
X53109665Y-135451436D01*
X53105514Y-135449094D01*
X52798568Y-135268031D01*
X52796472Y-135266766D01*
X52522598Y-135097838D01*
X52518804Y-135095402D01*
X52222903Y-134897687D01*
X52220670Y-134896160D01*
X51956710Y-134711332D01*
X51953271Y-134708834D01*
X51669245Y-134495083D01*
X51666899Y-134493274D01*
X51413847Y-134293187D01*
X51410754Y-134290659D01*
X51139298Y-134061434D01*
X51136865Y-134059325D01*
X50895784Y-133844782D01*
X50893032Y-133842257D01*
X50634906Y-133598221D01*
X50632412Y-133595796D01*
X50404202Y-133367586D01*
X50401777Y-133365092D01*
X50157741Y-133106966D01*
X50155216Y-133104214D01*
X49940673Y-132863133D01*
X49938564Y-132860700D01*
X49709339Y-132589244D01*
X49706811Y-132586151D01*
X49506724Y-132333099D01*
X49504915Y-132330753D01*
X49291164Y-132046727D01*
X49288666Y-132043288D01*
X49260893Y-132003624D01*
X49103808Y-131779284D01*
X49102311Y-131777095D01*
X48904596Y-131481194D01*
X48902160Y-131477400D01*
X48733232Y-131203526D01*
X48731994Y-131201475D01*
X48550882Y-130894445D01*
X48548586Y-130890375D01*
X48396128Y-130607625D01*
X48395192Y-130605852D01*
X48231270Y-130288550D01*
X48229055Y-130284041D01*
X48093654Y-129993671D01*
X48092957Y-129992148D01*
X47946698Y-129665290D01*
X47944674Y-129660494D01*
X47826809Y-129363811D01*
X47826334Y-129362592D01*
X47698157Y-129026804D01*
X47696321Y-129021652D01*
X47596519Y-128720465D01*
X47596081Y-128719118D01*
X47572683Y-128645707D01*
X47486446Y-128375140D01*
X47484840Y-128369662D01*
X47403386Y-128065671D01*
X47403145Y-128064756D01*
X47312266Y-127712447D01*
X47310910Y-127706601D01*
X47248138Y-127402600D01*
X47247970Y-127401767D01*
X47236102Y-127342103D01*
X47176185Y-127040879D01*
X47175119Y-127034708D01*
X47131230Y-126735084D01*
X47078645Y-126362611D01*
X47077901Y-126356097D01*
X47053096Y-126072577D01*
X47019969Y-125679843D01*
X47019583Y-125673035D01*
X47014008Y-125481488D01*
X47000548Y-125001745D01*
X47000500Y-124998270D01*
X47000500Y-124862720D01*
X61900831Y-124862720D01*
X62072546Y-124979793D01*
X62308860Y-125093596D01*
X62559496Y-125170908D01*
X62818856Y-125210000D01*
X63081144Y-125210000D01*
X63340503Y-125170908D01*
X63591139Y-125093596D01*
X63827456Y-124979792D01*
X63999167Y-124862720D01*
X62950001Y-123813553D01*
X62950000Y-123813553D01*
X61900831Y-124862720D01*
X47000500Y-124862720D01*
X47000500Y-123460000D01*
X61195092Y-123460000D01*
X61214693Y-123721552D01*
X61273059Y-123977270D01*
X61368882Y-124221424D01*
X61500027Y-124448573D01*
X61547873Y-124508571D01*
X61547874Y-124508571D01*
X62596446Y-123460001D01*
X62596446Y-123460000D01*
X63303553Y-123460000D01*
X64352124Y-124508571D01*
X64399972Y-124448572D01*
X64531117Y-124221423D01*
X64626940Y-123977270D01*
X64685306Y-123721552D01*
X64704907Y-123460000D01*
X73294591Y-123460000D01*
X73314197Y-123721627D01*
X73372580Y-123977418D01*
X73468346Y-124221424D01*
X73468432Y-124221643D01*
X73599614Y-124448857D01*
X73763195Y-124653981D01*
X73763197Y-124653983D01*
X73763198Y-124653984D01*
X73955514Y-124832428D01*
X73955520Y-124832432D01*
X73955521Y-124832433D01*
X74172296Y-124980228D01*
X74408677Y-125094063D01*
X74659385Y-125171396D01*
X74918818Y-125210500D01*
X75181182Y-125210500D01*
X75440615Y-125171396D01*
X75691323Y-125094063D01*
X75927704Y-124980228D01*
X76144479Y-124832433D01*
X76144482Y-124832429D01*
X76144485Y-124832428D01*
X76229792Y-124753273D01*
X76336805Y-124653981D01*
X76500386Y-124448857D01*
X76631568Y-124221643D01*
X76727420Y-123977416D01*
X76785802Y-123721630D01*
X76805408Y-123460000D01*
X76785802Y-123198370D01*
X76727420Y-122942584D01*
X76631568Y-122698357D01*
X76500386Y-122471143D01*
X76336805Y-122266019D01*
X76336801Y-122266015D01*
X76144485Y-122087571D01*
X76100053Y-122057278D01*
X75927704Y-121939772D01*
X75691323Y-121825937D01*
X75440615Y-121748604D01*
X75181182Y-121709500D01*
X74918818Y-121709500D01*
X74659385Y-121748604D01*
X74408677Y-121825937D01*
X74172296Y-121939772D01*
X74102922Y-121987070D01*
X73955514Y-122087571D01*
X73763198Y-122266015D01*
X73599613Y-122471143D01*
X73468431Y-122698358D01*
X73372580Y-122942581D01*
X73314197Y-123198372D01*
X73294591Y-123460000D01*
X64704907Y-123460000D01*
X64685306Y-123198447D01*
X64626940Y-122942729D01*
X64531117Y-122698575D01*
X64399972Y-122471426D01*
X64352125Y-122411427D01*
X63303553Y-123460000D01*
X62596446Y-123460000D01*
X61547873Y-122411427D01*
X61500028Y-122471424D01*
X61368882Y-122698576D01*
X61273059Y-122942729D01*
X61214693Y-123198447D01*
X61195092Y-123460000D01*
X47000500Y-123460000D01*
X47000500Y-122057278D01*
X61900831Y-122057278D01*
X62949998Y-123106446D01*
X62949999Y-123106446D01*
X63999167Y-122057278D01*
X63827451Y-121940205D01*
X63591139Y-121826403D01*
X63340503Y-121749091D01*
X63081144Y-121710000D01*
X62818856Y-121710000D01*
X62559496Y-121749091D01*
X62308860Y-121826403D01*
X62072545Y-121940206D01*
X61900831Y-122057278D01*
X47000500Y-122057278D01*
X47000500Y-116360000D01*
X61194591Y-116360000D01*
X61214197Y-116621627D01*
X61272580Y-116877418D01*
X61368431Y-117121641D01*
X61368432Y-117121643D01*
X61499614Y-117348857D01*
X61663195Y-117553981D01*
X61663197Y-117553983D01*
X61663198Y-117553984D01*
X61855514Y-117732428D01*
X61855520Y-117732432D01*
X61855521Y-117732433D01*
X62072296Y-117880228D01*
X62308677Y-117994063D01*
X62559385Y-118071396D01*
X62818818Y-118110500D01*
X63081182Y-118110500D01*
X63340615Y-118071396D01*
X63591323Y-117994063D01*
X63827704Y-117880228D01*
X64044479Y-117732433D01*
X64044482Y-117732429D01*
X64044485Y-117732428D01*
X64129792Y-117653273D01*
X64236805Y-117553981D01*
X64400386Y-117348857D01*
X64531568Y-117121643D01*
X64627420Y-116877416D01*
X64685802Y-116621630D01*
X64705408Y-116360000D01*
X73294591Y-116360000D01*
X73314197Y-116621627D01*
X73372580Y-116877418D01*
X73468431Y-117121641D01*
X73468432Y-117121643D01*
X73599614Y-117348857D01*
X73763195Y-117553981D01*
X73763197Y-117553983D01*
X73763198Y-117553984D01*
X73955514Y-117732428D01*
X73955520Y-117732432D01*
X73955521Y-117732433D01*
X74172296Y-117880228D01*
X74408677Y-117994063D01*
X74659385Y-118071396D01*
X74918818Y-118110500D01*
X75181182Y-118110500D01*
X75440615Y-118071396D01*
X75691323Y-117994063D01*
X75927704Y-117880228D01*
X76144479Y-117732433D01*
X76144482Y-117732429D01*
X76144485Y-117732428D01*
X76229792Y-117653273D01*
X76336805Y-117553981D01*
X76500386Y-117348857D01*
X76631568Y-117121643D01*
X76727420Y-116877416D01*
X76785802Y-116621630D01*
X76805408Y-116360000D01*
X76785802Y-116098370D01*
X76727420Y-115842584D01*
X76631568Y-115598357D01*
X76500386Y-115371143D01*
X76336805Y-115166019D01*
X76336801Y-115166015D01*
X76144485Y-114987571D01*
X76127170Y-114975766D01*
X75927704Y-114839772D01*
X75691323Y-114725937D01*
X75440615Y-114648604D01*
X75181182Y-114609500D01*
X74918818Y-114609500D01*
X74659385Y-114648604D01*
X74408677Y-114725937D01*
X74172296Y-114839772D01*
X74102922Y-114887070D01*
X73955514Y-114987571D01*
X73763198Y-115166015D01*
X73599613Y-115371143D01*
X73468431Y-115598358D01*
X73372580Y-115842581D01*
X73314197Y-116098372D01*
X73294591Y-116360000D01*
X64705408Y-116360000D01*
X64685802Y-116098370D01*
X64627420Y-115842584D01*
X64531568Y-115598357D01*
X64400386Y-115371143D01*
X64236805Y-115166019D01*
X64236801Y-115166015D01*
X64044485Y-114987571D01*
X64027170Y-114975766D01*
X63827704Y-114839772D01*
X63591323Y-114725937D01*
X63340615Y-114648604D01*
X63081182Y-114609500D01*
X62818818Y-114609500D01*
X62559385Y-114648604D01*
X62308677Y-114725937D01*
X62072296Y-114839772D01*
X62002922Y-114887070D01*
X61855514Y-114987571D01*
X61663198Y-115166015D01*
X61499613Y-115371143D01*
X61368431Y-115598358D01*
X61272580Y-115842581D01*
X61214197Y-116098372D01*
X61194591Y-116360000D01*
X47000500Y-116360000D01*
X47000500Y-109260000D01*
X61194591Y-109260000D01*
X61214197Y-109521627D01*
X61272580Y-109777418D01*
X61368431Y-110021641D01*
X61368432Y-110021643D01*
X61499614Y-110248857D01*
X61663195Y-110453981D01*
X61663197Y-110453983D01*
X61663198Y-110453984D01*
X61855514Y-110632428D01*
X61855520Y-110632432D01*
X61855521Y-110632433D01*
X62072296Y-110780228D01*
X62308677Y-110894063D01*
X62559385Y-110971396D01*
X62818818Y-111010500D01*
X63081182Y-111010500D01*
X63340615Y-110971396D01*
X63591323Y-110894063D01*
X63827704Y-110780228D01*
X64044479Y-110632433D01*
X64044482Y-110632429D01*
X64044485Y-110632428D01*
X64129792Y-110553273D01*
X64236805Y-110453981D01*
X64400386Y-110248857D01*
X64531568Y-110021643D01*
X64627420Y-109777416D01*
X64685802Y-109521630D01*
X64705408Y-109260000D01*
X73294591Y-109260000D01*
X73314197Y-109521627D01*
X73372580Y-109777418D01*
X73468431Y-110021641D01*
X73468432Y-110021643D01*
X73599614Y-110248857D01*
X73763195Y-110453981D01*
X73763197Y-110453983D01*
X73763198Y-110453984D01*
X73955514Y-110632428D01*
X73955520Y-110632432D01*
X73955521Y-110632433D01*
X74172296Y-110780228D01*
X74408677Y-110894063D01*
X74659385Y-110971396D01*
X74918818Y-111010500D01*
X75181182Y-111010500D01*
X75440615Y-110971396D01*
X75691323Y-110894063D01*
X75927704Y-110780228D01*
X76144479Y-110632433D01*
X76144482Y-110632429D01*
X76144485Y-110632428D01*
X76229792Y-110553273D01*
X76336805Y-110453981D01*
X76500386Y-110248857D01*
X76631568Y-110021643D01*
X76727420Y-109777416D01*
X76785802Y-109521630D01*
X76805408Y-109260000D01*
X76785802Y-108998370D01*
X76727420Y-108742584D01*
X76631568Y-108498357D01*
X76500386Y-108271143D01*
X76336805Y-108066019D01*
X76336801Y-108066015D01*
X76144485Y-107887571D01*
X76127170Y-107875766D01*
X75927704Y-107739772D01*
X75691323Y-107625937D01*
X75440615Y-107548604D01*
X75181182Y-107509500D01*
X74918818Y-107509500D01*
X74659385Y-107548604D01*
X74408677Y-107625937D01*
X74172296Y-107739772D01*
X74102922Y-107787070D01*
X73955514Y-107887571D01*
X73763198Y-108066015D01*
X73599613Y-108271143D01*
X73468431Y-108498358D01*
X73372580Y-108742581D01*
X73314197Y-108998372D01*
X73294591Y-109260000D01*
X64705408Y-109260000D01*
X64685802Y-108998370D01*
X64627420Y-108742584D01*
X64531568Y-108498357D01*
X64400386Y-108271143D01*
X64236805Y-108066019D01*
X64236801Y-108066015D01*
X64044485Y-107887571D01*
X64027170Y-107875766D01*
X63827704Y-107739772D01*
X63591323Y-107625937D01*
X63340615Y-107548604D01*
X63081182Y-107509500D01*
X62818818Y-107509500D01*
X62559385Y-107548604D01*
X62308677Y-107625937D01*
X62072296Y-107739772D01*
X62002922Y-107787070D01*
X61855514Y-107887571D01*
X61663198Y-108066015D01*
X61499613Y-108271143D01*
X61368431Y-108498358D01*
X61272580Y-108742581D01*
X61214197Y-108998372D01*
X61194591Y-109260000D01*
X47000500Y-109260000D01*
X47000500Y-92061899D01*
X47018773Y-91997109D01*
X47068205Y-91951414D01*
X47134229Y-91938281D01*
X47197385Y-91961580D01*
X47297270Y-92034151D01*
X47297271Y-92034151D01*
X47297272Y-92034152D01*
X47470197Y-92111144D01*
X47655352Y-92150500D01*
X47655354Y-92150500D01*
X47714548Y-92150500D01*
X47762001Y-92159939D01*
X47802229Y-92186819D01*
X52811038Y-97195629D01*
X52835277Y-97229926D01*
X52846678Y-97270348D01*
X52864326Y-97438257D01*
X52922820Y-97618284D01*
X53017466Y-97782216D01*
X53144129Y-97922889D01*
X53297269Y-98034151D01*
X53470197Y-98111144D01*
X53655352Y-98150500D01*
X53655354Y-98150500D01*
X53844646Y-98150500D01*
X53844648Y-98150500D01*
X54029798Y-98111145D01*
X54029797Y-98111145D01*
X54029803Y-98111144D01*
X54200063Y-98035338D01*
X54260229Y-98025000D01*
X54318035Y-98044623D01*
X54359473Y-98089450D01*
X54374500Y-98148618D01*
X54374500Y-104851382D01*
X54359473Y-104910550D01*
X54318035Y-104955377D01*
X54260229Y-104975000D01*
X54200064Y-104964662D01*
X54078528Y-104910550D01*
X54029803Y-104888856D01*
X54029802Y-104888855D01*
X54029798Y-104888854D01*
X53844648Y-104849500D01*
X53844646Y-104849500D01*
X53655354Y-104849500D01*
X53655352Y-104849500D01*
X53470197Y-104888855D01*
X53297272Y-104965847D01*
X53195175Y-105040024D01*
X53144129Y-105077112D01*
X53138401Y-105083473D01*
X53096688Y-105113780D01*
X53046253Y-105124500D01*
X49953747Y-105124500D01*
X49903312Y-105113780D01*
X49861598Y-105083473D01*
X49855871Y-105077112D01*
X49702730Y-104965849D01*
X49702729Y-104965848D01*
X49702727Y-104965847D01*
X49529802Y-104888855D01*
X49344648Y-104849500D01*
X49344646Y-104849500D01*
X49155354Y-104849500D01*
X49155352Y-104849500D01*
X48970197Y-104888855D01*
X48797269Y-104965848D01*
X48644129Y-105077110D01*
X48517466Y-105217783D01*
X48422820Y-105381715D01*
X48364326Y-105561742D01*
X48344540Y-105750000D01*
X48364326Y-105938257D01*
X48422820Y-106118284D01*
X48517466Y-106282216D01*
X48644129Y-106422889D01*
X48797269Y-106534151D01*
X48970197Y-106611144D01*
X49155352Y-106650500D01*
X49155354Y-106650500D01*
X49344646Y-106650500D01*
X49344648Y-106650500D01*
X49468084Y-106624262D01*
X49529803Y-106611144D01*
X49702730Y-106534151D01*
X49855871Y-106422888D01*
X49861598Y-106416526D01*
X49903312Y-106386220D01*
X49953747Y-106375500D01*
X53046253Y-106375500D01*
X53096688Y-106386220D01*
X53138401Y-106416526D01*
X53144129Y-106422888D01*
X53297270Y-106534151D01*
X53297271Y-106534151D01*
X53297272Y-106534152D01*
X53470197Y-106611144D01*
X53655352Y-106650500D01*
X53655354Y-106650500D01*
X53844646Y-106650500D01*
X53844648Y-106650500D01*
X53968084Y-106624262D01*
X54029803Y-106611144D01*
X54202730Y-106534151D01*
X54302116Y-106461943D01*
X54349219Y-106440972D01*
X54400781Y-106440972D01*
X54447883Y-106461943D01*
X54547270Y-106534151D01*
X54547271Y-106534151D01*
X54547272Y-106534152D01*
X54720197Y-106611144D01*
X54905352Y-106650500D01*
X54905354Y-106650500D01*
X55094646Y-106650500D01*
X55094648Y-106650500D01*
X55218084Y-106624262D01*
X55279803Y-106611144D01*
X55452730Y-106534151D01*
X55552115Y-106461944D01*
X55605870Y-106422889D01*
X55611598Y-106416528D01*
X55732533Y-106282216D01*
X55827179Y-106118284D01*
X55885674Y-105938256D01*
X55905460Y-105750000D01*
X55885674Y-105561744D01*
X55865612Y-105499999D01*
X66329699Y-105499999D01*
X66348865Y-105731299D01*
X66348865Y-105731301D01*
X66348866Y-105731305D01*
X66405843Y-105956300D01*
X66499076Y-106168849D01*
X66626021Y-106363153D01*
X66783216Y-106533913D01*
X66966374Y-106676470D01*
X67170497Y-106786936D01*
X67280258Y-106824617D01*
X67390015Y-106862297D01*
X67390017Y-106862297D01*
X67390019Y-106862298D01*
X67618951Y-106900500D01*
X67851048Y-106900500D01*
X67851049Y-106900500D01*
X68079981Y-106862298D01*
X68299503Y-106786936D01*
X68503626Y-106676470D01*
X68686784Y-106533913D01*
X68695511Y-106524432D01*
X68748132Y-106490577D01*
X68810588Y-106486727D01*
X68866971Y-106513865D01*
X68902924Y-106565079D01*
X68931647Y-106642088D01*
X69017811Y-106757188D01*
X69132910Y-106843352D01*
X69267624Y-106893597D01*
X69327176Y-106900000D01*
X70025000Y-106900000D01*
X70025000Y-105750000D01*
X70525000Y-105750000D01*
X70525000Y-106900000D01*
X71222824Y-106900000D01*
X71282375Y-106893597D01*
X71417089Y-106843352D01*
X71532188Y-106757188D01*
X71618352Y-106642089D01*
X71668597Y-106507375D01*
X71675000Y-106447824D01*
X71675000Y-105750000D01*
X70525000Y-105750000D01*
X70025000Y-105750000D01*
X70025000Y-104100000D01*
X70525000Y-104100000D01*
X70525000Y-105250000D01*
X71675000Y-105250000D01*
X71675000Y-104552176D01*
X71668597Y-104492624D01*
X71618352Y-104357910D01*
X71532188Y-104242811D01*
X71417089Y-104156647D01*
X71282375Y-104106402D01*
X71222824Y-104100000D01*
X70525000Y-104100000D01*
X70025000Y-104100000D01*
X69327176Y-104100000D01*
X69267624Y-104106402D01*
X69132910Y-104156647D01*
X69017811Y-104242811D01*
X68931645Y-104357913D01*
X68902923Y-104434920D01*
X68866971Y-104486134D01*
X68810589Y-104513271D01*
X68748135Y-104509423D01*
X68695513Y-104475569D01*
X68686784Y-104466087D01*
X68503626Y-104323530D01*
X68299503Y-104213064D01*
X68299499Y-104213062D01*
X68299498Y-104213062D01*
X68079984Y-104137702D01*
X67892410Y-104106402D01*
X67851049Y-104099500D01*
X67618951Y-104099500D01*
X67577590Y-104106402D01*
X67390015Y-104137702D01*
X67170501Y-104213062D01*
X67170497Y-104213063D01*
X67170497Y-104213064D01*
X67034414Y-104286708D01*
X66966372Y-104323531D01*
X66783215Y-104466087D01*
X66626020Y-104636848D01*
X66499076Y-104831150D01*
X66405844Y-105043696D01*
X66405842Y-105043700D01*
X66405843Y-105043700D01*
X66353601Y-105250000D01*
X66348865Y-105268700D01*
X66329699Y-105499999D01*
X55865612Y-105499999D01*
X55827179Y-105381716D01*
X55827179Y-105381715D01*
X55732535Y-105217786D01*
X55719427Y-105203229D01*
X55657347Y-105134282D01*
X55633736Y-105095751D01*
X55625500Y-105051313D01*
X55625500Y-102999999D01*
X60094540Y-102999999D01*
X60114326Y-103188257D01*
X60172820Y-103368284D01*
X60267466Y-103532216D01*
X60394129Y-103672889D01*
X60547269Y-103784151D01*
X60720197Y-103861144D01*
X60905352Y-103900500D01*
X60905354Y-103900500D01*
X61094646Y-103900500D01*
X61094648Y-103900500D01*
X61218083Y-103874262D01*
X61279803Y-103861144D01*
X61452730Y-103784151D01*
X61605871Y-103672888D01*
X61732533Y-103532216D01*
X61827179Y-103368284D01*
X61885674Y-103188256D01*
X61905460Y-103000000D01*
X61885674Y-102811744D01*
X61827179Y-102631716D01*
X61827179Y-102631715D01*
X61767113Y-102527678D01*
X61750500Y-102465678D01*
X61750500Y-100284322D01*
X61767113Y-100222322D01*
X61827179Y-100118284D01*
X61827178Y-100118284D01*
X61885674Y-99938256D01*
X61905460Y-99750000D01*
X61885674Y-99561744D01*
X61827179Y-99381716D01*
X61827179Y-99381715D01*
X61732533Y-99217783D01*
X61605870Y-99077110D01*
X61452730Y-98965848D01*
X61279802Y-98888855D01*
X61094648Y-98849500D01*
X61094646Y-98849500D01*
X60905354Y-98849500D01*
X60905352Y-98849500D01*
X60720197Y-98888855D01*
X60547269Y-98965848D01*
X60394129Y-99077110D01*
X60267466Y-99217783D01*
X60172820Y-99381715D01*
X60114326Y-99561742D01*
X60094540Y-99749999D01*
X60114326Y-99938257D01*
X60172820Y-100118284D01*
X60232887Y-100222322D01*
X60249500Y-100284322D01*
X60249500Y-102465678D01*
X60232887Y-102527678D01*
X60172820Y-102631715D01*
X60114326Y-102811742D01*
X60094540Y-102999999D01*
X55625500Y-102999999D01*
X55625500Y-86494355D01*
X55638050Y-86439997D01*
X55673159Y-86396641D01*
X55723716Y-86373065D01*
X55779803Y-86361144D01*
X55952730Y-86284151D01*
X56105871Y-86172888D01*
X56232533Y-86032216D01*
X56327179Y-85868284D01*
X56385674Y-85688256D01*
X56405460Y-85500000D01*
X56385674Y-85311744D01*
X56327179Y-85131716D01*
X56327179Y-85131715D01*
X56232533Y-84967783D01*
X56105870Y-84827110D01*
X55952730Y-84715848D01*
X55779802Y-84638855D01*
X55647303Y-84610692D01*
X55593734Y-84584689D01*
X55558464Y-84536711D01*
X55550571Y-84484124D01*
X54500001Y-83433553D01*
X54500000Y-83433553D01*
X53450831Y-84482720D01*
X53622546Y-84599793D01*
X53858860Y-84713596D01*
X54109496Y-84790908D01*
X54368856Y-84830000D01*
X54632242Y-84830000D01*
X54694242Y-84846613D01*
X54739629Y-84892000D01*
X54756242Y-84954000D01*
X54739629Y-85016000D01*
X54672820Y-85131715D01*
X54614326Y-85311742D01*
X54596768Y-85478798D01*
X54586192Y-85517455D01*
X54563839Y-85550720D01*
X54552097Y-85563224D01*
X54549390Y-85566018D01*
X54529874Y-85585534D01*
X54527415Y-85588705D01*
X54519842Y-85597572D01*
X54489935Y-85629420D01*
X54480285Y-85646974D01*
X54469609Y-85663228D01*
X54457326Y-85679063D01*
X54439975Y-85719158D01*
X54434838Y-85729644D01*
X54413802Y-85767907D01*
X54408821Y-85787309D01*
X54402520Y-85805711D01*
X54394561Y-85824102D01*
X54387728Y-85867242D01*
X54385360Y-85878674D01*
X54374500Y-85920978D01*
X54374500Y-85941016D01*
X54372973Y-85960415D01*
X54369840Y-85980194D01*
X54373950Y-86023675D01*
X54374500Y-86035344D01*
X54374500Y-96351382D01*
X54359473Y-96410550D01*
X54318035Y-96455377D01*
X54260229Y-96475000D01*
X54200064Y-96464662D01*
X54078528Y-96410550D01*
X54029803Y-96388856D01*
X54029802Y-96388855D01*
X54029798Y-96388854D01*
X53844648Y-96349500D01*
X53844646Y-96349500D01*
X53785453Y-96349500D01*
X53738000Y-96340061D01*
X53697772Y-96313181D01*
X48688960Y-91304369D01*
X48664720Y-91270071D01*
X48653321Y-91229655D01*
X48635674Y-91061744D01*
X48577179Y-90881716D01*
X48577179Y-90881715D01*
X48482533Y-90717783D01*
X48355870Y-90577110D01*
X48202730Y-90465848D01*
X48029802Y-90388855D01*
X47844648Y-90349500D01*
X47844646Y-90349500D01*
X47655354Y-90349500D01*
X47655352Y-90349500D01*
X47470197Y-90388855D01*
X47297272Y-90465847D01*
X47197386Y-90538419D01*
X47134229Y-90561719D01*
X47068205Y-90548586D01*
X47018773Y-90502891D01*
X47000500Y-90438101D01*
X47000500Y-83080000D01*
X52745092Y-83080000D01*
X52764693Y-83341552D01*
X52823059Y-83597270D01*
X52918882Y-83841424D01*
X53050027Y-84068573D01*
X53097873Y-84128571D01*
X53097874Y-84128571D01*
X54146446Y-83080001D01*
X54853553Y-83080001D01*
X55902124Y-84128571D01*
X55949972Y-84068572D01*
X56081117Y-83841423D01*
X56176940Y-83597270D01*
X56235306Y-83341552D01*
X56254907Y-83080000D01*
X56235306Y-82818447D01*
X56176940Y-82562729D01*
X56081117Y-82318575D01*
X55949972Y-82091426D01*
X55902125Y-82031427D01*
X54853553Y-83080000D01*
X54853553Y-83080001D01*
X54146446Y-83080001D01*
X54146446Y-83080000D01*
X53097873Y-82031427D01*
X53050028Y-82091424D01*
X52918882Y-82318576D01*
X52823059Y-82562729D01*
X52764693Y-82818447D01*
X52745092Y-83080000D01*
X47000500Y-83080000D01*
X47000500Y-81677278D01*
X53450832Y-81677278D01*
X54500000Y-82726446D01*
X54500001Y-82726446D01*
X55549167Y-81677278D01*
X55377451Y-81560205D01*
X55141139Y-81446403D01*
X54890503Y-81369091D01*
X54631144Y-81330000D01*
X54368856Y-81330000D01*
X54109496Y-81369091D01*
X53858860Y-81446403D01*
X53622545Y-81560206D01*
X53450832Y-81677278D01*
X47000500Y-81677278D01*
X47000500Y-80125000D01*
X56969540Y-80125000D01*
X56975254Y-80179369D01*
X56989326Y-80313257D01*
X57047820Y-80493284D01*
X57142466Y-80657216D01*
X57269129Y-80797889D01*
X57422269Y-80909151D01*
X57595197Y-80986144D01*
X57780352Y-81025500D01*
X57780354Y-81025500D01*
X57839548Y-81025500D01*
X57887001Y-81034939D01*
X57927229Y-81061819D01*
X59186038Y-82320628D01*
X59210277Y-82354925D01*
X59221678Y-82395347D01*
X59239326Y-82563257D01*
X59297820Y-82743284D01*
X59392466Y-82907216D01*
X59519129Y-83047889D01*
X59672269Y-83159151D01*
X59845197Y-83236144D01*
X60030352Y-83275500D01*
X60030354Y-83275500D01*
X60219646Y-83275500D01*
X60219648Y-83275500D01*
X60343084Y-83249262D01*
X60404803Y-83236144D01*
X60577730Y-83159151D01*
X60686671Y-83080001D01*
X60730870Y-83047889D01*
X60857533Y-82907216D01*
X60952179Y-82743284D01*
X60957650Y-82726446D01*
X61010674Y-82563256D01*
X61030460Y-82375000D01*
X61010674Y-82186744D01*
X60982327Y-82099500D01*
X84094540Y-82099500D01*
X84114326Y-82287757D01*
X84172820Y-82467784D01*
X84267466Y-82631716D01*
X84394129Y-82772389D01*
X84547269Y-82883651D01*
X84720197Y-82960644D01*
X84905352Y-83000000D01*
X84905354Y-83000000D01*
X85094646Y-83000000D01*
X85094648Y-83000000D01*
X85218084Y-82973762D01*
X85279803Y-82960644D01*
X85452730Y-82883651D01*
X85605871Y-82772388D01*
X85732533Y-82631716D01*
X85827179Y-82467784D01*
X85885674Y-82287756D01*
X85905460Y-82099500D01*
X85885674Y-81911244D01*
X85827179Y-81731216D01*
X85827179Y-81731215D01*
X85732535Y-81567286D01*
X85684425Y-81513855D01*
X85657347Y-81483782D01*
X85633736Y-81445251D01*
X85625500Y-81400813D01*
X85625500Y-78410452D01*
X85634939Y-78362999D01*
X85661819Y-78322771D01*
X88147772Y-75836819D01*
X88188000Y-75809939D01*
X88235453Y-75800500D01*
X88294648Y-75800500D01*
X88418083Y-75774262D01*
X88479803Y-75761144D01*
X88652730Y-75684151D01*
X88805871Y-75572888D01*
X88932533Y-75432216D01*
X89027179Y-75268284D01*
X89085674Y-75088256D01*
X89105460Y-74900000D01*
X89085674Y-74711744D01*
X89043996Y-74583472D01*
X89027179Y-74531715D01*
X88932533Y-74367783D01*
X88805870Y-74227110D01*
X88652730Y-74115848D01*
X88479802Y-74038855D01*
X88294648Y-73999500D01*
X88294646Y-73999500D01*
X88105354Y-73999500D01*
X88105352Y-73999500D01*
X87920197Y-74038855D01*
X87747269Y-74115848D01*
X87594129Y-74227110D01*
X87467466Y-74367783D01*
X87372820Y-74531715D01*
X87314326Y-74711742D01*
X87296679Y-74879649D01*
X87285279Y-74920070D01*
X87261039Y-74954368D01*
X84616208Y-77599199D01*
X84600110Y-77612096D01*
X84552096Y-77663225D01*
X84549391Y-77666017D01*
X84529874Y-77685534D01*
X84527415Y-77688705D01*
X84519842Y-77697572D01*
X84489935Y-77729420D01*
X84480285Y-77746974D01*
X84469609Y-77763228D01*
X84457326Y-77779063D01*
X84439975Y-77819158D01*
X84434838Y-77829644D01*
X84413802Y-77867907D01*
X84408821Y-77887309D01*
X84402520Y-77905711D01*
X84394561Y-77924102D01*
X84387728Y-77967242D01*
X84385360Y-77978674D01*
X84374500Y-78020978D01*
X84374500Y-78041016D01*
X84372973Y-78060415D01*
X84369840Y-78080194D01*
X84373950Y-78123675D01*
X84374500Y-78135344D01*
X84374500Y-81400813D01*
X84366264Y-81445251D01*
X84342652Y-81483782D01*
X84315575Y-81513855D01*
X84267464Y-81567286D01*
X84172820Y-81731215D01*
X84114326Y-81911242D01*
X84094540Y-82099500D01*
X60982327Y-82099500D01*
X60952179Y-82006716D01*
X60952179Y-82006715D01*
X60857533Y-81842783D01*
X60730870Y-81702110D01*
X60577730Y-81590848D01*
X60404802Y-81513855D01*
X60219648Y-81474500D01*
X60219646Y-81474500D01*
X60160453Y-81474500D01*
X60113000Y-81465061D01*
X60072772Y-81438181D01*
X58813960Y-80179369D01*
X58789720Y-80145071D01*
X58778321Y-80104655D01*
X58760674Y-79936744D01*
X58702179Y-79756716D01*
X58702179Y-79756715D01*
X58607533Y-79592783D01*
X58480870Y-79452110D01*
X58327730Y-79340848D01*
X58154802Y-79263855D01*
X57969648Y-79224500D01*
X57969646Y-79224500D01*
X57780354Y-79224500D01*
X57780352Y-79224500D01*
X57595197Y-79263855D01*
X57422269Y-79340848D01*
X57269129Y-79452110D01*
X57142466Y-79592783D01*
X57047820Y-79756715D01*
X56989326Y-79936742D01*
X56989325Y-79936744D01*
X56989326Y-79936744D01*
X56969540Y-80125000D01*
X47000500Y-80125000D01*
X47000500Y-78000000D01*
X52744591Y-78000000D01*
X52764197Y-78261627D01*
X52822580Y-78517418D01*
X52918431Y-78761641D01*
X52918432Y-78761643D01*
X53049614Y-78988857D01*
X53213195Y-79193981D01*
X53213197Y-79193983D01*
X53213198Y-79193984D01*
X53405514Y-79372428D01*
X53405520Y-79372432D01*
X53405521Y-79372433D01*
X53622296Y-79520228D01*
X53858677Y-79634063D01*
X54109385Y-79711396D01*
X54368818Y-79750500D01*
X54631182Y-79750500D01*
X54890615Y-79711396D01*
X55141323Y-79634063D01*
X55377704Y-79520228D01*
X55594479Y-79372433D01*
X55594482Y-79372429D01*
X55594485Y-79372428D01*
X55711497Y-79263856D01*
X55786805Y-79193981D01*
X55950386Y-78988857D01*
X56081568Y-78761643D01*
X56177420Y-78517416D01*
X56235802Y-78261630D01*
X56255408Y-78000000D01*
X56235802Y-77738370D01*
X56177420Y-77482584D01*
X56081568Y-77238357D01*
X55950386Y-77011143D01*
X55786805Y-76806019D01*
X55786801Y-76806015D01*
X55594485Y-76627571D01*
X55577170Y-76615766D01*
X55377704Y-76479772D01*
X55141323Y-76365937D01*
X54890615Y-76288604D01*
X54631182Y-76249500D01*
X54368818Y-76249500D01*
X54109385Y-76288604D01*
X53858677Y-76365937D01*
X53622296Y-76479772D01*
X53552922Y-76527070D01*
X53405514Y-76627571D01*
X53213198Y-76806015D01*
X53049613Y-77011143D01*
X52918431Y-77238358D01*
X52822580Y-77482581D01*
X52764197Y-77738372D01*
X52744591Y-78000000D01*
X47000500Y-78000000D01*
X47000500Y-75249999D01*
X70094540Y-75249999D01*
X70114326Y-75438257D01*
X70172820Y-75618284D01*
X70267466Y-75782216D01*
X70394129Y-75922889D01*
X70547269Y-76034151D01*
X70720197Y-76111144D01*
X70905352Y-76150500D01*
X70905354Y-76150500D01*
X71094646Y-76150500D01*
X71094648Y-76150500D01*
X71218084Y-76124262D01*
X71279803Y-76111144D01*
X71452730Y-76034151D01*
X71605871Y-75922888D01*
X71611598Y-75916526D01*
X71653312Y-75886220D01*
X71703747Y-75875500D01*
X78796253Y-75875500D01*
X78846688Y-75886220D01*
X78888401Y-75916526D01*
X78894129Y-75922888D01*
X79047270Y-76034151D01*
X79047271Y-76034151D01*
X79047272Y-76034152D01*
X79220197Y-76111144D01*
X79405352Y-76150500D01*
X79405354Y-76150500D01*
X79594646Y-76150500D01*
X79594648Y-76150500D01*
X79718084Y-76124262D01*
X79779803Y-76111144D01*
X79952730Y-76034151D01*
X80105871Y-75922888D01*
X80232533Y-75782216D01*
X80327179Y-75618284D01*
X80385674Y-75438256D01*
X80405460Y-75250000D01*
X80385674Y-75061744D01*
X80327179Y-74881716D01*
X80327179Y-74881715D01*
X80232533Y-74717783D01*
X80105870Y-74577110D01*
X79952730Y-74465848D01*
X79779802Y-74388855D01*
X79594648Y-74349500D01*
X79594646Y-74349500D01*
X79405354Y-74349500D01*
X79405352Y-74349500D01*
X79220197Y-74388855D01*
X79047272Y-74465847D01*
X78956613Y-74531715D01*
X78894129Y-74577112D01*
X78888401Y-74583473D01*
X78846688Y-74613780D01*
X78796253Y-74624500D01*
X71703747Y-74624500D01*
X71653312Y-74613780D01*
X71611598Y-74583473D01*
X71605871Y-74577112D01*
X71465762Y-74475317D01*
X71428164Y-74431295D01*
X71414649Y-74375000D01*
X71428164Y-74318705D01*
X71465764Y-74274682D01*
X71605870Y-74172889D01*
X71658909Y-74113984D01*
X71732533Y-74032216D01*
X71827179Y-73868284D01*
X71885674Y-73688256D01*
X71903321Y-73520344D01*
X71914721Y-73479925D01*
X71938955Y-73445633D01*
X72222773Y-73161816D01*
X72262999Y-73134939D01*
X72310452Y-73125500D01*
X78796253Y-73125500D01*
X78846688Y-73136220D01*
X78888401Y-73166526D01*
X78894129Y-73172888D01*
X79047270Y-73284151D01*
X79047271Y-73284151D01*
X79047272Y-73284152D01*
X79220197Y-73361144D01*
X79405352Y-73400500D01*
X79405354Y-73400500D01*
X79594646Y-73400500D01*
X79594648Y-73400500D01*
X79718084Y-73374262D01*
X79779803Y-73361144D01*
X79952730Y-73284151D01*
X80105871Y-73172888D01*
X80232533Y-73032216D01*
X80327179Y-72868284D01*
X80385674Y-72688256D01*
X80405460Y-72500000D01*
X80385674Y-72311744D01*
X80327179Y-72131716D01*
X80327179Y-72131715D01*
X80232533Y-71967783D01*
X80105870Y-71827110D01*
X79952730Y-71715848D01*
X79779802Y-71638855D01*
X79594648Y-71599500D01*
X79594646Y-71599500D01*
X79405354Y-71599500D01*
X79405352Y-71599500D01*
X79220197Y-71638855D01*
X79047272Y-71715847D01*
X78945176Y-71790024D01*
X78894129Y-71827112D01*
X78888401Y-71833473D01*
X78846688Y-71863780D01*
X78796253Y-71874500D01*
X72082744Y-71874500D01*
X72062236Y-71872235D01*
X71992113Y-71874439D01*
X71988219Y-71874500D01*
X71960650Y-71874500D01*
X71956671Y-71875002D01*
X71945041Y-71875917D01*
X71901372Y-71877289D01*
X71882128Y-71882880D01*
X71863084Y-71886824D01*
X71843208Y-71889335D01*
X71802600Y-71905413D01*
X71791554Y-71909194D01*
X71749610Y-71921382D01*
X71749607Y-71921383D01*
X71732365Y-71931579D01*
X71714904Y-71940133D01*
X71696267Y-71947512D01*
X71660931Y-71973185D01*
X71651174Y-71979595D01*
X71613580Y-72001829D01*
X71599413Y-72015996D01*
X71584624Y-72028626D01*
X71568413Y-72040404D01*
X71540572Y-72074058D01*
X71532711Y-72082697D01*
X71052228Y-72563181D01*
X71012000Y-72590061D01*
X70964547Y-72599500D01*
X70905352Y-72599500D01*
X70720197Y-72638855D01*
X70547269Y-72715848D01*
X70394129Y-72827110D01*
X70267466Y-72967783D01*
X70172820Y-73131715D01*
X70114326Y-73311742D01*
X70094540Y-73499999D01*
X70114326Y-73688257D01*
X70172820Y-73868284D01*
X70267466Y-74032216D01*
X70394127Y-74172887D01*
X70534236Y-74274682D01*
X70571835Y-74318705D01*
X70585350Y-74375000D01*
X70571835Y-74431295D01*
X70534236Y-74475318D01*
X70394127Y-74577112D01*
X70267466Y-74717783D01*
X70172820Y-74881715D01*
X70114326Y-75061742D01*
X70094540Y-75249999D01*
X47000500Y-75249999D01*
X47000500Y-72920000D01*
X52744591Y-72920000D01*
X52764197Y-73181627D01*
X52822580Y-73437418D01*
X52918431Y-73681641D01*
X52918432Y-73681643D01*
X53049614Y-73908857D01*
X53213195Y-74113981D01*
X53213197Y-74113983D01*
X53213198Y-74113984D01*
X53405514Y-74292428D01*
X53405520Y-74292432D01*
X53405521Y-74292433D01*
X53622296Y-74440228D01*
X53858677Y-74554063D01*
X54109385Y-74631396D01*
X54368818Y-74670500D01*
X54631182Y-74670500D01*
X54890615Y-74631396D01*
X55141323Y-74554063D01*
X55377704Y-74440228D01*
X55594479Y-74292433D01*
X55594482Y-74292429D01*
X55594485Y-74292428D01*
X55723319Y-74172887D01*
X55786805Y-74113981D01*
X55950386Y-73908857D01*
X56081568Y-73681643D01*
X56177420Y-73437416D01*
X56235802Y-73181630D01*
X56255408Y-72920000D01*
X56235802Y-72658370D01*
X56177420Y-72402584D01*
X56081568Y-72158357D01*
X55950386Y-71931143D01*
X55786805Y-71726019D01*
X55786801Y-71726015D01*
X55594485Y-71547571D01*
X55577170Y-71535766D01*
X55377704Y-71399772D01*
X55141323Y-71285937D01*
X54890615Y-71208604D01*
X54631182Y-71169500D01*
X54368818Y-71169500D01*
X54109385Y-71208604D01*
X53858677Y-71285937D01*
X53622296Y-71399772D01*
X53552922Y-71447070D01*
X53405514Y-71547571D01*
X53213198Y-71726015D01*
X53049613Y-71931143D01*
X52918431Y-72158358D01*
X52822580Y-72402581D01*
X52764197Y-72658372D01*
X52744591Y-72920000D01*
X47000500Y-72920000D01*
X47000500Y-65561899D01*
X47018773Y-65497109D01*
X47068205Y-65451414D01*
X47134229Y-65438281D01*
X47197385Y-65461580D01*
X47297270Y-65534151D01*
X47297271Y-65534151D01*
X47297272Y-65534152D01*
X47470197Y-65611144D01*
X47655352Y-65650500D01*
X47655354Y-65650500D01*
X47844646Y-65650500D01*
X47844648Y-65650500D01*
X47978188Y-65622115D01*
X48029803Y-65611144D01*
X48202730Y-65534151D01*
X48355871Y-65422888D01*
X48361598Y-65416526D01*
X48403312Y-65386220D01*
X48453747Y-65375500D01*
X49653954Y-65375500D01*
X49713257Y-65390600D01*
X49758117Y-65432224D01*
X49777607Y-65490233D01*
X49766981Y-65550499D01*
X49728826Y-65598344D01*
X49672436Y-65622114D01*
X49629385Y-65628604D01*
X49378677Y-65705937D01*
X49142296Y-65819772D01*
X49072922Y-65867070D01*
X48925514Y-65967571D01*
X48733198Y-66146015D01*
X48569613Y-66351143D01*
X48438431Y-66578358D01*
X48342580Y-66822581D01*
X48284197Y-67078372D01*
X48264591Y-67340000D01*
X48284197Y-67601627D01*
X48342580Y-67857418D01*
X48438346Y-68101424D01*
X48438432Y-68101643D01*
X48569614Y-68328857D01*
X48733195Y-68533981D01*
X48733197Y-68533983D01*
X48733198Y-68533984D01*
X48925514Y-68712428D01*
X48925520Y-68712432D01*
X48925521Y-68712433D01*
X49142296Y-68860228D01*
X49378677Y-68974063D01*
X49629385Y-69051396D01*
X49888818Y-69090500D01*
X50151182Y-69090500D01*
X50410615Y-69051396D01*
X50661323Y-68974063D01*
X50897704Y-68860228D01*
X51114479Y-68712433D01*
X51114482Y-68712429D01*
X51114485Y-68712428D01*
X51199792Y-68633273D01*
X51306805Y-68533981D01*
X51470386Y-68328857D01*
X51601568Y-68101643D01*
X51624115Y-68044192D01*
X51650773Y-68002919D01*
X51691375Y-67975237D01*
X51739541Y-67965500D01*
X53380459Y-67965500D01*
X53428625Y-67975237D01*
X53469227Y-68002919D01*
X53495884Y-68044192D01*
X53518432Y-68101643D01*
X53649614Y-68328857D01*
X53813195Y-68533981D01*
X53813197Y-68533983D01*
X53813198Y-68533984D01*
X54005514Y-68712428D01*
X54005520Y-68712432D01*
X54005521Y-68712433D01*
X54222296Y-68860228D01*
X54458677Y-68974063D01*
X54709385Y-69051396D01*
X54968818Y-69090500D01*
X55231182Y-69090500D01*
X55490615Y-69051396D01*
X55741323Y-68974063D01*
X55977704Y-68860228D01*
X56194479Y-68712433D01*
X56194482Y-68712429D01*
X56194485Y-68712428D01*
X56279792Y-68633273D01*
X56386805Y-68533981D01*
X56550386Y-68328857D01*
X56681568Y-68101643D01*
X56777420Y-67857416D01*
X56835802Y-67601630D01*
X56855408Y-67340000D01*
X56835802Y-67078370D01*
X56777420Y-66822584D01*
X56681568Y-66578357D01*
X56550386Y-66351143D01*
X56386805Y-66146019D01*
X56386801Y-66146015D01*
X56194485Y-65967571D01*
X56150053Y-65937278D01*
X55977704Y-65819772D01*
X55741323Y-65705937D01*
X55490615Y-65628604D01*
X55447563Y-65622114D01*
X55391174Y-65598344D01*
X55353019Y-65550499D01*
X55342393Y-65490233D01*
X55361883Y-65432224D01*
X55406743Y-65390600D01*
X55466046Y-65375500D01*
X57279548Y-65375500D01*
X57327001Y-65384939D01*
X57367229Y-65411819D01*
X58522796Y-66567387D01*
X58549378Y-66606902D01*
X58559105Y-66653521D01*
X58550544Y-66700369D01*
X58502580Y-66822584D01*
X58444197Y-67078372D01*
X58424591Y-67340000D01*
X58444197Y-67601627D01*
X58502580Y-67857418D01*
X58598346Y-68101424D01*
X58598432Y-68101643D01*
X58729614Y-68328857D01*
X58893195Y-68533981D01*
X58893197Y-68533983D01*
X58893198Y-68533984D01*
X59085514Y-68712428D01*
X59085520Y-68712432D01*
X59085521Y-68712433D01*
X59302296Y-68860228D01*
X59538677Y-68974063D01*
X59789385Y-69051396D01*
X60048818Y-69090500D01*
X60311182Y-69090500D01*
X60570615Y-69051396D01*
X60821323Y-68974063D01*
X61057704Y-68860228D01*
X61274479Y-68712433D01*
X61274482Y-68712429D01*
X61274485Y-68712428D01*
X61359792Y-68633273D01*
X61466805Y-68533981D01*
X61630386Y-68328857D01*
X61761568Y-68101643D01*
X61857420Y-67857416D01*
X61915802Y-67601630D01*
X61935408Y-67340000D01*
X76164591Y-67340000D01*
X76184197Y-67601627D01*
X76242580Y-67857418D01*
X76338346Y-68101424D01*
X76338432Y-68101643D01*
X76469614Y-68328857D01*
X76633195Y-68533981D01*
X76633197Y-68533983D01*
X76633198Y-68533984D01*
X76825514Y-68712428D01*
X76825520Y-68712432D01*
X76825521Y-68712433D01*
X77042296Y-68860228D01*
X77278677Y-68974063D01*
X77529385Y-69051396D01*
X77788818Y-69090500D01*
X78051182Y-69090500D01*
X78310615Y-69051396D01*
X78561323Y-68974063D01*
X78797704Y-68860228D01*
X79014479Y-68712433D01*
X79014482Y-68712429D01*
X79014485Y-68712428D01*
X79099792Y-68633273D01*
X79206805Y-68533981D01*
X79370386Y-68328857D01*
X79501568Y-68101643D01*
X79597420Y-67857416D01*
X79655802Y-67601630D01*
X79675408Y-67340000D01*
X79655802Y-67078370D01*
X79597420Y-66822584D01*
X79501568Y-66578357D01*
X79370386Y-66351143D01*
X79206805Y-66146019D01*
X79206801Y-66146015D01*
X79014485Y-65967571D01*
X78970053Y-65937278D01*
X78797704Y-65819772D01*
X78561323Y-65705937D01*
X78310615Y-65628604D01*
X78051182Y-65589500D01*
X77788818Y-65589500D01*
X77529385Y-65628604D01*
X77278677Y-65705937D01*
X77042296Y-65819772D01*
X76972922Y-65867070D01*
X76825514Y-65967571D01*
X76633198Y-66146015D01*
X76469613Y-66351143D01*
X76338431Y-66578358D01*
X76242580Y-66822581D01*
X76184197Y-67078372D01*
X76164591Y-67340000D01*
X61935408Y-67340000D01*
X61915802Y-67078370D01*
X61857420Y-66822584D01*
X61761568Y-66578357D01*
X61630386Y-66351143D01*
X61466805Y-66146019D01*
X61466801Y-66146015D01*
X61274485Y-65967571D01*
X61230053Y-65937278D01*
X61057704Y-65819772D01*
X60821323Y-65705937D01*
X60570615Y-65628604D01*
X60311182Y-65589500D01*
X60048818Y-65589500D01*
X59789385Y-65628604D01*
X59538677Y-65705937D01*
X59538674Y-65705938D01*
X59529799Y-65708676D01*
X59529225Y-65706817D01*
X59495776Y-65715110D01*
X59445842Y-65706623D01*
X59403468Y-65678877D01*
X58090802Y-64366211D01*
X58077906Y-64350113D01*
X58026775Y-64302098D01*
X58023978Y-64299387D01*
X58004470Y-64279879D01*
X58001290Y-64277412D01*
X57992424Y-64269839D01*
X57960582Y-64239938D01*
X57943024Y-64230285D01*
X57926764Y-64219604D01*
X57910936Y-64207327D01*
X57870851Y-64189980D01*
X57860361Y-64184841D01*
X57822091Y-64163802D01*
X57802691Y-64158821D01*
X57784284Y-64152519D01*
X57765897Y-64144562D01*
X57722758Y-64137729D01*
X57711324Y-64135361D01*
X57669019Y-64124500D01*
X57648984Y-64124500D01*
X57629586Y-64122973D01*
X57622162Y-64121797D01*
X57609805Y-64119840D01*
X57609804Y-64119840D01*
X57576751Y-64122964D01*
X57566325Y-64123950D01*
X57554656Y-64124500D01*
X48453747Y-64124500D01*
X48403312Y-64113780D01*
X48361598Y-64083473D01*
X48355871Y-64077112D01*
X48202730Y-63965849D01*
X48202729Y-63965848D01*
X48202727Y-63965847D01*
X48029802Y-63888855D01*
X47844648Y-63849500D01*
X47844646Y-63849500D01*
X47655354Y-63849500D01*
X47655352Y-63849500D01*
X47470197Y-63888855D01*
X47297272Y-63965847D01*
X47197386Y-64038419D01*
X47134229Y-64061719D01*
X47068205Y-64048586D01*
X47018773Y-64002891D01*
X47000500Y-63938101D01*
X47000500Y-63250000D01*
X68844540Y-63250000D01*
X68864326Y-63438257D01*
X68922820Y-63618284D01*
X69017466Y-63782216D01*
X69144129Y-63922889D01*
X69297269Y-64034151D01*
X69470197Y-64111144D01*
X69655352Y-64150500D01*
X69655354Y-64150500D01*
X69844646Y-64150500D01*
X69844648Y-64150500D01*
X70017401Y-64113780D01*
X70029803Y-64111144D01*
X70202730Y-64034151D01*
X70355871Y-63922888D01*
X70361598Y-63916526D01*
X70403312Y-63886220D01*
X70453747Y-63875500D01*
X78599548Y-63875500D01*
X78647001Y-63884939D01*
X78687229Y-63911819D01*
X81342796Y-66567387D01*
X81369378Y-66606902D01*
X81379105Y-66653521D01*
X81370544Y-66700369D01*
X81322580Y-66822584D01*
X81264197Y-67078372D01*
X81244591Y-67340000D01*
X81264197Y-67601627D01*
X81322580Y-67857418D01*
X81418346Y-68101424D01*
X81418432Y-68101643D01*
X81549614Y-68328857D01*
X81713195Y-68533981D01*
X81713197Y-68533983D01*
X81713198Y-68533984D01*
X81905514Y-68712428D01*
X81905520Y-68712432D01*
X81905521Y-68712433D01*
X82122296Y-68860228D01*
X82358677Y-68974063D01*
X82609385Y-69051396D01*
X82868818Y-69090500D01*
X83131182Y-69090500D01*
X83390615Y-69051396D01*
X83641323Y-68974063D01*
X83877704Y-68860228D01*
X84050056Y-68742720D01*
X87030831Y-68742720D01*
X87202546Y-68859793D01*
X87438860Y-68973596D01*
X87689496Y-69050908D01*
X87948856Y-69090000D01*
X88211144Y-69090000D01*
X88470503Y-69050908D01*
X88721139Y-68973596D01*
X88957456Y-68859792D01*
X89129167Y-68742720D01*
X88080001Y-67693553D01*
X88080000Y-67693553D01*
X87030831Y-68742720D01*
X84050056Y-68742720D01*
X84094479Y-68712433D01*
X84094482Y-68712429D01*
X84094485Y-68712428D01*
X84179792Y-68633273D01*
X84286805Y-68533981D01*
X84450386Y-68328857D01*
X84581568Y-68101643D01*
X84677420Y-67857416D01*
X84735802Y-67601630D01*
X84755408Y-67340000D01*
X86325092Y-67340000D01*
X86344693Y-67601552D01*
X86403059Y-67857270D01*
X86498882Y-68101424D01*
X86630027Y-68328573D01*
X86677873Y-68388571D01*
X86677874Y-68388571D01*
X87726446Y-67340001D01*
X88433553Y-67340001D01*
X89482124Y-68388571D01*
X89529972Y-68328572D01*
X89661117Y-68101423D01*
X89756940Y-67857270D01*
X89815306Y-67601552D01*
X89834907Y-67340000D01*
X89815306Y-67078447D01*
X89756940Y-66822729D01*
X89661117Y-66578575D01*
X89529972Y-66351426D01*
X89482125Y-66291427D01*
X88433553Y-67340000D01*
X88433553Y-67340001D01*
X87726446Y-67340001D01*
X87726446Y-67339999D01*
X86677873Y-66291427D01*
X86630028Y-66351424D01*
X86498882Y-66578576D01*
X86403059Y-66822729D01*
X86344693Y-67078447D01*
X86325092Y-67340000D01*
X84755408Y-67340000D01*
X84735802Y-67078370D01*
X84677420Y-66822584D01*
X84581568Y-66578357D01*
X84450386Y-66351143D01*
X84286805Y-66146019D01*
X84286801Y-66146015D01*
X84094485Y-65967571D01*
X84050053Y-65937278D01*
X87030832Y-65937278D01*
X88080000Y-66986446D01*
X88080001Y-66986446D01*
X89129167Y-65937278D01*
X88957451Y-65820205D01*
X88721139Y-65706403D01*
X88470503Y-65629091D01*
X88211144Y-65590000D01*
X87948856Y-65590000D01*
X87689496Y-65629091D01*
X87438860Y-65706403D01*
X87202545Y-65820206D01*
X87030832Y-65937278D01*
X84050053Y-65937278D01*
X83877704Y-65819772D01*
X83641323Y-65705937D01*
X83390615Y-65628604D01*
X83131182Y-65589500D01*
X82868818Y-65589500D01*
X82609385Y-65628604D01*
X82358677Y-65705937D01*
X82358674Y-65705938D01*
X82349799Y-65708676D01*
X82349225Y-65706817D01*
X82315776Y-65715110D01*
X82265842Y-65706623D01*
X82223468Y-65678877D01*
X79410802Y-62866211D01*
X79397906Y-62850113D01*
X79346775Y-62802098D01*
X79343978Y-62799387D01*
X79324470Y-62779879D01*
X79321290Y-62777412D01*
X79312424Y-62769839D01*
X79280582Y-62739938D01*
X79263024Y-62730285D01*
X79246764Y-62719604D01*
X79230936Y-62707327D01*
X79190851Y-62689980D01*
X79180361Y-62684841D01*
X79142091Y-62663802D01*
X79122691Y-62658821D01*
X79104284Y-62652519D01*
X79085897Y-62644562D01*
X79042758Y-62637729D01*
X79031324Y-62635361D01*
X78989019Y-62624500D01*
X78968984Y-62624500D01*
X78949586Y-62622973D01*
X78942162Y-62621797D01*
X78929805Y-62619840D01*
X78929804Y-62619840D01*
X78896751Y-62622964D01*
X78886325Y-62623950D01*
X78874656Y-62624500D01*
X70453747Y-62624500D01*
X70403312Y-62613780D01*
X70361598Y-62583473D01*
X70355871Y-62577112D01*
X70202730Y-62465849D01*
X70202729Y-62465848D01*
X70202727Y-62465847D01*
X70029802Y-62388855D01*
X69844648Y-62349500D01*
X69844646Y-62349500D01*
X69655354Y-62349500D01*
X69655352Y-62349500D01*
X69470197Y-62388855D01*
X69297269Y-62465848D01*
X69144129Y-62577110D01*
X69017466Y-62717783D01*
X68922820Y-62881715D01*
X68864326Y-63061742D01*
X68844540Y-63250000D01*
X47000500Y-63250000D01*
X47000500Y-53700000D01*
X66350000Y-53700000D01*
X66350000Y-54497824D01*
X66356402Y-54557375D01*
X66406647Y-54692089D01*
X66492811Y-54807188D01*
X66607910Y-54893352D01*
X66742624Y-54943597D01*
X66802176Y-54950000D01*
X68850000Y-54950000D01*
X68850000Y-53700000D01*
X69350000Y-53700000D01*
X69350000Y-54950000D01*
X71397824Y-54950000D01*
X71457375Y-54943597D01*
X71592089Y-54893352D01*
X71707188Y-54807188D01*
X71793352Y-54692089D01*
X71843597Y-54557375D01*
X71850000Y-54497824D01*
X71850000Y-53700000D01*
X69350000Y-53700000D01*
X68850000Y-53700000D01*
X66350000Y-53700000D01*
X47000500Y-53700000D01*
X47000500Y-53501730D01*
X47000549Y-53498253D01*
X47008917Y-53200000D01*
X66350000Y-53200000D01*
X68850000Y-53200000D01*
X68850000Y-51950000D01*
X69350000Y-51950000D01*
X69350000Y-53200000D01*
X71850000Y-53200000D01*
X71850000Y-52402176D01*
X71843597Y-52342624D01*
X71793352Y-52207910D01*
X71707188Y-52092811D01*
X71592089Y-52006647D01*
X71457375Y-51956402D01*
X71397824Y-51950000D01*
X69350000Y-51950000D01*
X68850000Y-51950000D01*
X66802176Y-51950000D01*
X66742624Y-51956402D01*
X66607910Y-52006647D01*
X66492811Y-52092811D01*
X66406647Y-52207910D01*
X66356402Y-52342624D01*
X66350000Y-52402176D01*
X66350000Y-53200000D01*
X47008917Y-53200000D01*
X47013982Y-53019451D01*
X47014015Y-53019331D01*
X47013986Y-53019331D01*
X47019583Y-52826955D01*
X47019970Y-52820149D01*
X47029297Y-52709571D01*
X47053108Y-52427273D01*
X47077903Y-52143882D01*
X47078644Y-52137397D01*
X47131238Y-51764863D01*
X47175121Y-51465278D01*
X47176182Y-51459133D01*
X47205434Y-51312073D01*
X72299500Y-51312073D01*
X72314891Y-51497816D01*
X72314891Y-51497819D01*
X72314892Y-51497821D01*
X72375937Y-51738881D01*
X72387614Y-51765501D01*
X72475825Y-51966604D01*
X72475827Y-51966607D01*
X72611836Y-52174785D01*
X72780256Y-52357738D01*
X72780259Y-52357740D01*
X72976485Y-52510470D01*
X72976487Y-52510471D01*
X72976491Y-52510474D01*
X73195190Y-52628828D01*
X73430386Y-52709571D01*
X73675665Y-52750500D01*
X73924335Y-52750500D01*
X74169614Y-52709571D01*
X74404810Y-52628828D01*
X74623509Y-52510474D01*
X74819744Y-52357738D01*
X74988164Y-52174785D01*
X75124173Y-51966607D01*
X75224063Y-51738881D01*
X75285108Y-51497821D01*
X75300500Y-51312067D01*
X75300500Y-49187933D01*
X75285108Y-49002179D01*
X75224063Y-48761119D01*
X75124173Y-48533393D01*
X74988164Y-48325215D01*
X74819744Y-48142262D01*
X74731417Y-48073514D01*
X74623514Y-47989529D01*
X74623510Y-47989526D01*
X74623509Y-47989526D01*
X74404810Y-47871172D01*
X74404806Y-47871170D01*
X74404805Y-47871170D01*
X74169615Y-47790429D01*
X73924335Y-47749500D01*
X73675665Y-47749500D01*
X73430384Y-47790429D01*
X73195194Y-47871170D01*
X72976485Y-47989529D01*
X72780259Y-48142259D01*
X72611837Y-48325214D01*
X72475825Y-48533395D01*
X72414124Y-48674061D01*
X72375937Y-48761119D01*
X72338744Y-48907990D01*
X72314891Y-49002183D01*
X72299500Y-49187927D01*
X72299500Y-51312073D01*
X47205434Y-51312073D01*
X47248026Y-51097952D01*
X47248117Y-51097500D01*
X47310913Y-50793380D01*
X47312261Y-50787570D01*
X47403186Y-50435081D01*
X47403356Y-50434437D01*
X47484846Y-50130313D01*
X47486438Y-50124882D01*
X47596135Y-49780711D01*
X47596484Y-49779638D01*
X47696331Y-49478319D01*
X47698146Y-49473223D01*
X47826381Y-49137285D01*
X47826769Y-49136288D01*
X47944687Y-48839471D01*
X47946683Y-48834743D01*
X48093008Y-48507739D01*
X48093609Y-48506423D01*
X48229073Y-48215918D01*
X48231250Y-48211487D01*
X48395243Y-47894049D01*
X48396078Y-47892467D01*
X48548610Y-47609579D01*
X48550856Y-47605598D01*
X48687274Y-47374335D01*
X66599500Y-47374335D01*
X66640429Y-47619614D01*
X66721172Y-47854810D01*
X66794236Y-47989820D01*
X66839529Y-48073514D01*
X66946888Y-48211448D01*
X66992262Y-48269744D01*
X67175215Y-48438164D01*
X67383393Y-48574173D01*
X67611119Y-48674063D01*
X67852179Y-48735108D01*
X67926480Y-48741264D01*
X68037927Y-48750500D01*
X68037933Y-48750500D01*
X70162067Y-48750500D01*
X70162073Y-48750500D01*
X70263387Y-48742104D01*
X70347821Y-48735108D01*
X70588881Y-48674063D01*
X70816607Y-48574173D01*
X71024785Y-48438164D01*
X71207738Y-48269744D01*
X71360474Y-48073509D01*
X71478828Y-47854810D01*
X71559571Y-47619614D01*
X71600500Y-47374335D01*
X71600500Y-47125665D01*
X71559571Y-46880386D01*
X71478828Y-46645190D01*
X71360474Y-46426491D01*
X71360471Y-46426487D01*
X71360470Y-46426485D01*
X71207740Y-46230259D01*
X71207738Y-46230256D01*
X71024785Y-46061836D01*
X70816607Y-45925827D01*
X70816604Y-45925825D01*
X70691523Y-45870960D01*
X70588881Y-45825937D01*
X70347821Y-45764892D01*
X70347819Y-45764891D01*
X70347816Y-45764891D01*
X70162073Y-45749500D01*
X70162067Y-45749500D01*
X68037933Y-45749500D01*
X68037927Y-45749500D01*
X67852183Y-45764891D01*
X67852179Y-45764891D01*
X67852179Y-45764892D01*
X67611119Y-45825937D01*
X67611116Y-45825938D01*
X67611117Y-45825938D01*
X67383395Y-45925825D01*
X67244607Y-46016499D01*
X67175215Y-46061836D01*
X67061027Y-46166954D01*
X66992259Y-46230259D01*
X66839529Y-46426485D01*
X66721170Y-46645194D01*
X66640429Y-46880384D01*
X66616703Y-47022569D01*
X66599500Y-47125665D01*
X66599500Y-47374335D01*
X48687274Y-47374335D01*
X48732049Y-47298431D01*
X48733193Y-47296535D01*
X48902178Y-47022569D01*
X48904552Y-47018871D01*
X49102374Y-46722810D01*
X49103749Y-46720798D01*
X49288701Y-46456661D01*
X49291147Y-46453294D01*
X49504960Y-46169185D01*
X49506681Y-46166954D01*
X49706864Y-45913781D01*
X49709287Y-45910816D01*
X49938600Y-45639256D01*
X49940631Y-45636912D01*
X50155263Y-45395732D01*
X50157692Y-45393084D01*
X50401849Y-45134831D01*
X50404131Y-45132484D01*
X50632484Y-44904131D01*
X50634831Y-44901849D01*
X50893084Y-44657692D01*
X50895732Y-44655263D01*
X51136912Y-44440631D01*
X51139256Y-44438600D01*
X51410816Y-44209287D01*
X51413781Y-44206864D01*
X51666954Y-44006681D01*
X51669185Y-44004960D01*
X51953294Y-43791147D01*
X51956661Y-43788701D01*
X52220798Y-43603749D01*
X52222810Y-43602374D01*
X52518871Y-43404552D01*
X52522569Y-43402178D01*
X52796535Y-43233193D01*
X52798431Y-43232049D01*
X53105598Y-43050856D01*
X53109579Y-43048610D01*
X53392467Y-42896078D01*
X53394049Y-42895243D01*
X53711487Y-42731250D01*
X53715918Y-42729073D01*
X54006423Y-42593609D01*
X54007739Y-42593008D01*
X54334743Y-42446683D01*
X54339471Y-42444687D01*
X54636288Y-42326769D01*
X54637285Y-42326381D01*
X54973223Y-42198146D01*
X54978319Y-42196331D01*
X55279638Y-42096484D01*
X55280711Y-42096135D01*
X55624882Y-41986438D01*
X55630313Y-41984846D01*
X55934437Y-41903356D01*
X55935081Y-41903186D01*
X56287570Y-41812261D01*
X56293380Y-41810913D01*
X56597500Y-41748117D01*
X56597952Y-41748026D01*
X56959133Y-41676182D01*
X56965278Y-41675121D01*
X57264885Y-41631234D01*
X57637397Y-41578644D01*
X57643878Y-41577903D01*
X57927141Y-41553120D01*
X58320160Y-41519969D01*
X58326955Y-41519583D01*
X58519331Y-41513986D01*
X58519331Y-41514015D01*
X58519451Y-41513982D01*
X58998254Y-41500548D01*
X59001730Y-41500500D01*
X78998270Y-41500500D01*
X79001745Y-41500548D01*
G37*
%TD.AperFunction*%
%TD*%
M02*
