M48
; DRILL file {KiCad 7.0.1} date Sat Nov 18 18:10:13 2023
; FORMAT={-:-/ absolute / metric / decimal}
; #@! TF.CreationDate,2023-11-18T18:10:13+02:00
; #@! TF.GenerationSoftware,Kicad,Pcbnew,7.0.1
; #@! TF.FileFunction,Plated,1,2,PTH
FMAT,2
METRIC
; #@! TA.AperFunction,Plated,PTH,ViaDrill
T1C0.400
; #@! TA.AperFunction,Plated,PTH,ComponentDrill
T2C0.900
; #@! TA.AperFunction,Plated,PTH,ComponentDrill
T3C1.000
; #@! TA.AperFunction,Plated,PTH,ComponentDrill
T4C1.300
%
G90
G05
T1
X47.75Y-64.75
X47.75Y-91.25
X47.75Y-93.25
X49.25Y-105.75
X49.5Y-78.25
X50.0Y-70.7
X50.5Y-88.0
X52.0Y-61.25
X52.5Y-101.25
X52.5Y-115.0
X52.75Y-85.25
X52.75Y-94.5
X53.75Y-97.25
X53.75Y-105.75
X54.0Y-90.75
X55.0Y-105.75
X55.5Y-85.5
X56.0Y-90.75
X56.25Y-81.25
X57.0Y-95.75
X57.875Y-80.125
X58.5Y-112.0
X60.125Y-82.375
X61.0Y-99.75
X61.0Y-103.0
X61.5Y-77.25
X62.5Y-63.25
X63.5Y-83.0
X65.25Y-89.0
X69.5Y-83.0
X69.5Y-87.5
X69.75Y-63.25
X71.0Y-73.5
X71.0Y-75.25
X71.5Y-76.5
X72.5Y-70.75
X72.5Y-105.5
X78.0Y-84.25
X78.5Y-65.0
X78.5Y-98.75
X79.05Y-104.25
X79.25Y-80.0
X79.5Y-72.5
X79.5Y-75.25
X80.0Y-61.75
X81.2Y-77.5
X83.25Y-109.25
X83.5Y-90.75
X85.0Y-82.099
X85.7Y-65.9
X87.75Y-59.5
X88.0Y-85.5
X88.2Y-74.9
X88.6Y-79.5
T2
X67.735Y-105.5
X70.275Y-105.5
T4
X50.02Y-67.34
X54.5Y-72.92
X54.5Y-78.0
X54.5Y-83.08
X55.1Y-67.34
X60.18Y-67.34
X62.95Y-109.26
X62.95Y-116.36
X62.95Y-123.46
X75.05Y-109.26
X75.05Y-116.36
X75.05Y-123.46
X77.92Y-67.34
X83.0Y-67.34
X88.08Y-67.34
T3
X70.1Y-47.25G85X68.1Y-47.25
G05
X70.35Y-53.45G85X67.85Y-53.45
G05
X73.8Y-51.25G85X73.8Y-49.25
G05
T0
M30
